<?xml version="1.0" encoding="utf-8"?>
<!-- Generator: Adobe Illustrator 19.1.0, SVG Export Plug-In . SVG Version: 6.00 Build 0)  -->
<svg version="1.1" id="Capa_1" xmlns="http://www.w3.org/2000/svg" xmlns:xlink="http://www.w3.org/1999/xlink" x="0px" y="0px"
	 viewBox="-786 467.4 346.6 346.6" style="enable-background:new -786 467.4 346.6 346.6;" xml:space="preserve">
<g>
	<g>
		<path d="M-459.2,696.1c3.1,1.8,8,0.6,11,0s5.5-1.2,8-3.7s-1.2-5.5-3.7-3.7c-4.3,3.7-11-0.6-15.3,2.4
			C-461,692.4-461,694.9-459.2,696.1z"/>
		<path d="M-505.7,699.8c2.4,0.6,6.1,0,9.2,0c3.7,0,6.7,0,10.4-0.6c3.1,0,3.1-4.3,0-4.3c-3.7,0-6.7-0.6-10.4-0.6
			c-3.1-0.6-6.1-1.2-9.2,0C-508.2,695.5-508.2,698.6-505.7,699.8z"/>
		<path d="M-553.5,696.1c4.3,1.2,8.6,1.2,12.9,1.8c3.1,0,6.7,0.6,9.8,0.6c2.4,0,2.4-3.7,0-3.7c-8-0.6-14.7-4.9-22.6-3.7
			C-555.9,691.8-555.9,696.1-553.5,696.1z"/>
		<path d="M-598.7,682.6c1.2,3.1,5.5,6.1,8.6,8c3.1,1.2,6.1,2.4,9.2,1.8c1.8,0,3.1-3.1,0.6-3.7c-3.1-0.6-5.5-1.8-8-3.7
			s-4.3-4.9-7.3-6.1C-598.1,677.7-600,680.2-598.7,682.6z"/>
		<path d="M-634.9,640.4c-0.6,3.7,3.1,8,4.9,11c2.4,3.1,5.5,6.1,8.6,9.2c2.4,1.8,4.9-1.2,3.1-3.1c-2.4-3.7-5.5-7.3-7.3-11.6
			c-1.2-3.1-1.8-6.1-4.9-8C-632.4,636.7-634.2,638.6-634.9,640.4z"/>
		<path d="M-636.1,621.4c1.2,1.8,3.7,0.6,3.1-1.2c-3.1-6.1-1.2-12.2-2.4-19c0-2.4-4.3-2.4-4.9,0
			C-641.6,608.6-639.1,615.9-636.1,621.4z"/>
		<path d="M-633.6,573.1c0,2.4,3.7,2.4,3.7,0c1.2-6.1,4.9-11.6,7.3-17.1c1.8-3.7-3.7-6.7-5.5-3.1
			C-631.8,559-634.2,566.4-633.6,573.1z"/>
		<path d="M-601.8,543.1c1.8-3.1,4.3-5.5,8-6.7c2.4-0.6,6.1,0,8-1.8c1.2-0.6,1.2-2.4,0-3.7c-3.1-3.1-8.6-0.6-11.6,1.2
			c-3.7,1.8-6.1,4.9-8,8.6C-606.7,543.7-603,546.2-601.8,543.1z"/>
		<path d="M-555.9,531.5c1.2,0,3.1,0,4.3,0.6c0,1.2,0.6,2.4,1.8,2.4c1.8,0.6,5.5,0.6,6.7-0.6c1.8-1.8,0.6-4.3-1.2-4.9
			c-3.7-1.2-8-1.8-11.6-1.8C-559,527.2-559,531.5-555.9,531.5z"/>
		<path d="M-521,553.5c3.7,0.6,6.7,1.8,8.6,5.5c1.8,3.1,2.4,8,4.9,10.4c1.8,2.4,5.5,0,5.5-2.4s-1.8-5.5-3.1-8
			c-0.6-1.8-1.8-3.7-3.7-5.5c-3.1-3.1-7.3-4.3-12.2-4.3C-524.1,549.8-523.5,553.5-521,553.5z"/>
		<path d="M-510.6,597c3.1,3.7,2.4,9.2,1.8,13.5c0,1.2,0.6,2.4,1.8,3.1s1.8,0.6,3.1,0s1.8-1.8,1.8-3.1c-0.6-5.5-0.6-11.6-4.9-15.9
			C-508.8,592.7-511.2,595.1-510.6,597z"/>
		<path d="M-518,653.3c0,1.8,1.8,2.4,3.7,2.4c3.7-0.6,4.9-4.9,4.9-8c0.6-3.7,0-7.3-0.6-11c0-1.8-3.1-1.8-3.1,0
			c-0.6,3.1-1.2,6.1-1.8,9.2C-515.5,648.4-517.4,650.2-518,653.3z"/>
		<path d="M-535.7,686.3c6.7-1.8,13.5-10.4,13.5-17.7c0-1.8-3.1-1.8-3.1,0c-1.2,6.7-8,9.8-12.9,14.1
			C-540,684.5-538.2,686.9-535.7,686.3z"/>
		<path d="M-581,718.1c7.3-2.4,13.5-6.7,19.6-10.4c2.4-1.2,0.6-4.3-1.8-3.1c-6.1,3.1-13.5,5.5-19,9.2
			C-584.7,715.1-582.8,719.4-581,718.1z"/>
		<path d="M-635.5,718.7c7.3,1.8,14.7,0,22,3.1c2.4,0.6,4.3-3.1,1.8-4.3c-6.7-3.7-16.5-6.1-23.9-3.7
			C-637.3,714.5-637.3,717.5-635.5,718.7z"/>
		<path d="M-693.6,714.5c6.1,4.9,14.1,4.3,21.4,3.1c1.8-0.6,1.8-3.1,0-3.7c-3.1-0.6-6.1-1.2-9.2-1.8c-3.7-0.6-6.7-1.8-9.8-2.4
			C-693.6,709-696.7,712.6-693.6,714.5z"/>
		<path d="M-741.3,715.1c4.9,5.5,15.9,3.1,22,0c3.1-1.2,1.2-6.1-1.8-4.9s-6.7,2.4-10.4,1.8c-2.4-0.6-4.9-1.8-7.3-1.8
			C-742,709.6-742.6,713.2-741.3,715.1z"/>
		<path d="M-783.6,714.5c20.8,12.2,41.6,25.1,61.2,39.2c3.7,2.4,8-3.1,4.9-6.1c-15.9-14.7-34.9-26.3-52.6-38.6
			c6.1-4.3,12.9-9.2,19.6-13.5c5.5-3.7,11.6-6.7,15.3-12.2c2.4-4.3-1.8-8-5.5-7.3c-8,1.8-15.9,9.2-22.6,14.1
			c-6.7,4.9-14.1,9.8-20.8,15.3C-787.2,707.7-786,712.6-783.6,714.5z"/>
	</g>
</g>
</svg>
